<?xml version="1.0" encoding="utf-8"?>
<svg viewBox="0 0 500 500" xmlns="http://www.w3.org/2000/svg">
  <path style="stroke: none; fill-rule: nonzero; fill: rgb(0, 0, 0); fill-opacity: 1;" d="M 133.884 410.615 C 133.884 387.44 152.849 368.48 176.018 368.48 L 323.819 368.48 C 347.151 368.48 365.953 387.44 365.953 410.615 L 365.953 724.194 C 365.953 747.363 347.151 766.329 323.819 766.329 L 176.018 766.329 C 152.849 766.329 133.884 747.363 133.884 724.194 L 133.884 410.615 Z M 133.884 583.851 L 365.953 583.851 L 365.953 766.165 L 133.884 766.165 L 133.884 583.851 Z M 133.884 583.851"/>
  <path style="stroke: none; fill-rule: nonzero; fill: rgb(0, 0, 0); fill-opacity: 1;" d="M 249.918 332.018 C 167.434 332.018 100.826 265.246 100.826 182.763 C 100.826 100.278 167.434 33.67 249.918 33.67 C 332.403 33.67 399.174 100.278 399.174 182.763 C 399.174 265.246 332.403 332.018 249.918 332.018 Z M 249.918 332.018"/>
  <path style="stroke: none; fill-rule: nonzero; fill: rgb(255, 255, 255); fill-opacity: 1;" d="M 265.477 183.573 L 261.585 130.416 C 260.939 119.94 258.292 109.191 253.646 98.17 C 248.785 85.743 233.282 80.02 207.137 80.989 L 207.137 73.538 L 174.727 73.538 L 175.207 98.17 L 175.207 291.986 L 207.137 291.986 L 207.137 120.206 C 212.86 118.692 218.913 120.312 225.286 125.067 C 229.604 128.308 232.845 147.811 235.01 183.573 L 238.574 235.106 C 239.22 245.584 241.815 256.333 246.354 267.354 C 251.215 279.781 266.769 285.502 293.027 284.533 L 293.027 291.986 L 325.439 291.986 L 324.951 267.354 L 324.951 73.538 L 293.027 73.538 L 293.027 245.318 C 287.191 246.832 281.139 245.211 274.872 240.456 C 270.447 237.215 267.314 218.25 265.477 183.573 Z M 265.477 183.573"/>
</svg>