<?xml version="1.0" encoding="utf-8"?>
<svg viewBox="0 0 880 310" xmlns="http://www.w3.org/2000/svg">
  <g id="surface1" transform="matrix(0.9999999999999999, 0, 0, 0.9999999999999999, 0, 0)">
    <rect x="0" y="0" width="880" height="310" style="fill-opacity: 1; stroke: none; fill: rgb(220, 68, 5);"/>
    <path style=" stroke:none;fill-rule:nonzero;fill:rgb(0%,0%,0%);fill-opacity:1;" d="M 684.898438 250.601562 C 684.898438 236.300781 696.601562 224.601562 710.898438 224.601562 L 802.101562 224.601562 C 816.5 224.601562 828.101562 236.300781 828.101562 250.601562 L 828.101562 444.101562 C 828.101562 458.398438 816.5 470.101562 802.101562 470.101562 L 710.898438 470.101562 C 696.601562 470.101562 684.898438 458.398438 684.898438 444.101562 Z M 684.898438 357.5 L 828.101562 357.5 L 828.101562 470 L 684.898438 470 Z M 684.898438 357.5 "/>
    <path style=" stroke:none;fill-rule:nonzero;fill:rgb(0%,0%,0%);fill-opacity:1;" d="M 756.5 202.101562 C 705.601562 202.101562 664.5 160.898438 664.5 110 C 664.5 59.101562 705.601562 18 756.5 18 C 807.398438 18 848.601562 59.101562 848.601562 110 C 848.601562 160.898438 807.398438 202.101562 756.5 202.101562 Z M 756.5 202.101562 "/>
    <path style=" stroke:none;fill-rule:nonzero;fill:rgb(100%,100%,100%);fill-opacity:1;" d="M 766.101562 110.5 L 763.699219 77.699219 C 763.300781 71.234375 761.667969 64.601562 758.800781 57.800781 C 755.800781 50.132812 746.234375 46.601562 730.101562 47.199219 L 730.101562 42.601562 L 710.101562 42.601562 L 710.398438 57.800781 L 710.398438 177.398438 L 730.101562 177.398438 L 730.101562 71.398438 C 733.632812 70.464844 737.367188 71.464844 741.300781 74.398438 C 743.964844 76.398438 745.964844 88.433594 747.300781 110.5 L 749.5 142.300781 C 749.898438 148.765625 751.5 155.398438 754.300781 162.199219 C 757.300781 169.867188 766.898438 173.398438 783.101562 172.800781 L 783.101562 177.398438 L 803.101562 177.398438 L 802.800781 162.199219 L 802.800781 42.601562 L 783.101562 42.601562 L 783.101562 148.601562 C 779.5 149.535156 775.765625 148.535156 771.898438 145.601562 C 769.167969 143.601562 767.234375 131.898438 766.101562 110.5 Z M 766.101562 110.5 "/>
    <path style=" stroke:none;fill-rule:nonzero;fill:rgb(0%,0%,0%);fill-opacity:1;" d="M 31 149.300781 L 31 93.101562 L 45.800781 93.101562 L 47.398438 103.300781 C 48.867188 100.964844 50.601562 98.933594 52.601562 97.199219 C 54.667969 95.464844 57 94.132812 59.601562 93.199219 C 62.265625 92.199219 65.101562 91.699219 68.101562 91.699219 L 68.101562 109.5 L 62.601562 109.5 C 60.332031 109.5 58.300781 109.734375 56.5 110.199219 C 54.699219 110.667969 53.132812 111.464844 51.800781 112.601562 C 50.535156 113.734375 49.535156 115.234375 48.800781 117.101562 C 48.066406 119.035156 47.699219 121.398438 47.699219 124.199219 L 47.699219 149.300781 Z M 31 149.300781 "/>
    <path style=" stroke:none;fill-rule:nonzero;fill:rgb(0%,0%,0%);fill-opacity:1;" d="M 634.601562 149.300781 C 630.601562 149.300781 627.035156 148.632812 623.898438 147.300781 C 620.832031 146.035156 618.433594 143.898438 616.699219 140.898438 C 614.964844 137.964844 614.101562 133.933594 614.101562 128.800781 L 614.101562 107 L 604.5 107 L 604.5 93.101562 L 614.101562 93.101562 L 615.898438 77.199219 L 630.898438 77.199219 L 630.898438 93.101562 L 645.199219 93.101562 L 645.199219 107 L 630.898438 107 L 630.898438 129 C 630.898438 131.199219 631.398438 132.765625 632.398438 133.699219 C 633.398438 134.632812 635.101562 135.101562 637.5 135.101562 L 645.199219 135.101562 L 645.199219 149.300781 Z M 634.601562 149.300781 "/>
    <path style=" stroke:none;fill-rule:nonzero;fill:rgb(0%,0%,0%);fill-opacity:1;" d="M 575.199219 150.601562 C 569.398438 150.601562 564.300781 149.398438 559.898438 147 C 555.5 144.601562 552.066406 141.234375 549.601562 136.898438 C 547.132812 132.5 545.898438 127.5 545.898438 121.898438 C 545.898438 116.101562 547.132812 110.933594 549.601562 106.398438 C 552 101.800781 555.398438 98.199219 559.800781 95.601562 C 564.199219 93 569.300781 91.699219 575.101562 91.699219 C 580.765625 91.699219 585.699219 92.933594 589.898438 95.398438 C 594.167969 97.867188 597.5 101.199219 599.898438 105.398438 C 602.300781 109.601562 603.5 114.464844 603.5 120 C 603.5 120.734375 603.5 121.566406 603.5 122.5 C 603.433594 123.433594 603.332031 124.367188 603.199219 125.300781 L 557.800781 125.300781 L 557.800781 115.601562 L 586.5 115.601562 C 586.367188 112.464844 585.234375 109.964844 583.101562 108.101562 C 580.964844 106.167969 578.332031 105.199219 575.199219 105.199219 C 572.800781 105.199219 570.632812 105.765625 568.699219 106.898438 C 566.765625 108.035156 565.234375 109.699219 564.101562 111.898438 C 562.964844 114.167969 562.398438 117 562.398438 120.398438 L 562.398438 123.800781 C 562.398438 126.398438 562.898438 128.699219 563.898438 130.699219 C 564.898438 132.699219 566.332031 134.265625 568.199219 135.398438 C 570.132812 136.464844 572.398438 137 575 137 C 577.464844 137 579.5 136.5 581.101562 135.5 C 582.699219 134.5 583.933594 133.234375 584.800781 131.699219 L 601.898438 131.699219 C 600.832031 135.234375 599.035156 138.433594 596.5 141.300781 C 593.964844 144.167969 590.898438 146.433594 587.300781 148.101562 C 583.632812 149.765625 579.601562 150.601562 575.199219 150.601562 Z M 575.199219 150.601562 "/>
    <path style=" stroke:none;fill-rule:nonzero;fill:rgb(0%,0%,0%);fill-opacity:1;" d="M 529.898438 149.300781 L 506.699219 118.5 L 527.398438 93.101562 L 547.101562 93.101562 L 519.300781 125.601562 L 519.300781 112.300781 L 550.699219 149.300781 Z M 492.398438 69 L 509.101562 69 L 509.101562 149.300781 L 492.398438 149.300781 Z M 492.398438 69 "/>
    <path style=" stroke:none;fill-rule:nonzero;fill:rgb(0%,0%,0%);fill-opacity:1;" d="M 458.300781 150.601562 C 452.5 150.601562 447.398438 149.332031 443 146.800781 C 438.601562 144.332031 435.132812 140.898438 432.601562 136.5 C 430.132812 132.101562 428.898438 127.066406 428.898438 121.398438 C 428.898438 115.601562 430.132812 110.5 432.601562 106.101562 C 435.132812 101.632812 438.601562 98.132812 443 95.601562 C 447.398438 93 452.5 91.699219 458.300781 91.699219 C 465.699219 91.699219 471.898438 93.632812 476.898438 97.5 C 481.898438 101.367188 485.066406 106.765625 486.398438 113.699219 L 468.699219 113.699219 C 468.035156 111.300781 466.765625 109.433594 464.898438 108.101562 C 463.035156 106.765625 460.800781 106.101562 458.199219 106.101562 C 455.734375 106.101562 453.601562 106.734375 451.800781 108 C 450 109.199219 448.566406 110.933594 447.5 113.199219 C 446.5 115.464844 446 118.132812 446 121.199219 C 446 123.464844 446.265625 125.535156 446.800781 127.398438 C 447.398438 129.265625 448.265625 130.867188 449.398438 132.199219 C 450.464844 133.535156 451.734375 134.566406 453.199219 135.300781 C 454.667969 136.035156 456.332031 136.398438 458.199219 136.398438 C 460 136.398438 461.601562 136.101562 463 135.5 C 464.332031 134.898438 465.5 134.035156 466.5 132.898438 C 467.5 131.765625 468.234375 130.398438 468.699219 128.800781 L 486.398438 128.800781 C 485.066406 135.464844 481.898438 140.765625 476.898438 144.699219 C 471.832031 148.632812 465.632812 150.601562 458.300781 150.601562 Z M 458.300781 150.601562 "/>
    <path style=" stroke:none;fill-rule:evenodd;fill:rgb(0%,0%,0%);fill-opacity:1;" d="M 395.898438 150.601562 C 390.433594 150.601562 385.566406 149.332031 381.300781 146.800781 C 376.964844 144.332031 373.535156 140.867188 371 136.398438 C 368.464844 132 367.199219 126.964844 367.199219 121.300781 C 367.199219 115.5 368.464844 110.398438 371 106 C 373.535156 101.535156 376.964844 98.035156 381.300781 95.5 C 385.699219 92.964844 390.566406 91.699219 395.898438 91.699219 C 401.367188 91.699219 406.265625 92.964844 410.601562 95.5 C 414.933594 98.035156 418.367188 101.535156 420.898438 106 C 423.433594 110.398438 424.699219 115.464844 424.699219 121.199219 C 424.699219 126.933594 423.433594 132 420.898438 136.398438 C 418.367188 140.867188 414.933594 144.332031 410.601562 146.800781 C 406.265625 149.332031 401.367188 150.601562 395.898438 150.601562 Z M 395.898438 136.101562 C 398.101562 136.101562 400.101562 135.566406 401.898438 134.5 C 403.632812 133.367188 405 131.667969 406 129.398438 C 407.066406 127.199219 407.601562 124.464844 407.601562 121.199219 C 407.601562 117.933594 407.066406 115.167969 406 112.898438 C 405 110.699219 403.632812 109.035156 401.898438 107.898438 C 400.167969 106.765625 398.199219 106.199219 396 106.199219 C 393.800781 106.199219 391.800781 106.765625 390 107.898438 C 388.265625 109.035156 386.898438 110.699219 385.898438 112.898438 C 384.832031 115.167969 384.300781 117.933594 384.300781 121.199219 C 384.300781 124.464844 384.832031 127.199219 385.898438 129.398438 C 386.898438 131.667969 388.265625 133.367188 390 134.5 C 391.800781 135.566406 393.765625 136.101562 395.898438 136.101562 Z M 395.898438 136.101562 "/>
    <path style=" stroke:none;fill-rule:nonzero;fill:rgb(0%,0%,0%);fill-opacity:1;" d="M 329.5 149.300781 L 329.5 93.101562 L 344.398438 93.101562 L 345.898438 103.300781 C 347.433594 100.964844 349.199219 98.933594 351.199219 97.199219 C 353.199219 95.464844 355.5 94.132812 358.101562 93.199219 C 360.765625 92.199219 363.632812 91.699219 366.699219 91.699219 L 366.699219 109.5 L 361.101562 109.5 C 358.832031 109.5 356.800781 109.734375 355 110.199219 C 353.199219 110.667969 351.632812 111.464844 350.300781 112.601562 C 349.035156 113.734375 348.035156 115.234375 347.300781 117.101562 C 346.632812 119.035156 346.300781 121.398438 346.300781 124.199219 L 346.300781 149.300781 Z M 329.5 149.300781 "/>
    <path style=" stroke:none;fill-rule:nonzero;fill:rgb(0%,0%,0%);fill-opacity:1;" d="M 295.898 150.602 C 290.102 150.602 285 149.398 280.602 147 C 276.199 144.602 272.766 141.234 270.301 136.898 C 267.766 132.5 266.5 127.5 266.5 121.898 C 266.5 116.102 267.734 110.934 270.199 106.398 C 272.668 101.801 276.102 98.199 280.5 95.602 C 284.832 93 289.898 91.699 295.699 91.699 C 301.367 91.699 306.332 92.934 310.602 95.398 C 314.801 97.867 318.133 101.199 320.602 105.398 C 323 109.602 324.199 114.465 324.199 120 C 324.199 120.734 324.168 121.566 324.102 122.5 C 324.102 123.434 324.035 124.367 323.898 125.301 L 278.5 125.301 L 278.5 115.602 L 307.102 115.602 C 306.965 112.465 305.832 109.965 303.699 108.102 C 301.566 106.168 298.965 105.199 295.898 105.199 C 293.5 105.199 291.332 105.766 289.398 106.898 C 287.465 108.035 285.934 109.699 284.801 111.898 C 283.602 114.168 283 117 283 120.398 L 283 123.801 C 283 126.398 283.5 128.699 284.5 130.699 C 285.5 132.699 286.965 134.266 288.898 135.398 C 290.766 136.465 293 137 295.602 137 C 298.066 137 300.102 136.5 301.699 135.5 C 303.301 134.5 304.535 133.234 305.398 131.699 L 322.5 131.699 C 321.5 135.234 319.734 138.434 317.199 141.301 C 314.668 144.168 311.566 146.434 307.898 148.102 C 304.234 149.766 300.234 150.602 295.898 150.602 Z M 295.898 150.602"/>
    <path style=" stroke:none;fill-rule:evenodd;fill:rgb(0%,0%,0%);fill-opacity:1;" d="M 235.398438 150.601562 C 232.667969 150.601562 230.199219 150.265625 228 149.601562 C 225.800781 148.933594 223.867188 148 222.199219 146.800781 C 220.535156 145.535156 219.101562 144.132812 217.898438 142.601562 L 216 149.300781 L 201.199219 149.300781 L 201.199219 69 L 217.898438 69 L 217.898438 100.398438 C 219.699219 97.867188 222 95.800781 224.800781 94.199219 C 227.667969 92.535156 231.167969 91.699219 235.300781 91.699219 C 240.433594 91.699219 245.035156 93 249.101562 95.601562 C 253.167969 98.132812 256.367188 101.632812 258.699219 106.101562 C 261.101562 110.5 262.300781 115.566406 262.300781 121.300781 C 262.300781 126.898438 261.101562 131.933594 258.699219 136.398438 C 256.367188 140.867188 253.167969 144.332031 249.101562 146.800781 C 245.101562 149.332031 240.535156 150.601562 235.398438 150.601562 Z M 231.300781 136 C 233.964844 136 236.367188 135.367188 238.5 134.101562 C 240.632812 132.832031 242.265625 131.101562 243.398438 128.898438 C 244.601562 126.699219 245.199219 124.167969 245.199219 121.300781 C 245.199219 118.367188 244.601562 115.765625 243.398438 113.5 C 242.265625 111.234375 240.632812 109.464844 238.5 108.199219 C 236.367188 107 233.964844 106.398438 231.300781 106.398438 C 228.566406 106.398438 226.132812 107.035156 224 108.300781 C 221.867188 109.632812 220.199219 111.367188 219 113.5 C 217.800781 115.699219 217.199219 118.300781 217.199219 121.300781 C 217.199219 124.101562 217.800781 126.632812 219 128.898438 C 220.199219 131.167969 221.867188 132.933594 224 134.199219 C 226.132812 135.398438 228.566406 136 231.300781 136 Z M 231.300781 136 "/>
    <path style=" stroke:none;fill-rule:evenodd;fill:rgb(0%,0%,0%);fill-opacity:1;" d="M 168.398438 150.601562 C 165.667969 150.601562 163.199219 150.265625 161 149.601562 C 158.800781 148.933594 156.867188 148 155.199219 146.800781 C 153.535156 145.535156 152.101562 144.132812 150.898438 142.601562 L 149 149.300781 L 134.101562 149.300781 L 134.101562 69 L 150.898438 69 L 150.898438 100.398438 C 152.699219 97.867188 155 95.800781 157.800781 94.199219 C 160.601562 92.535156 164.101562 91.699219 168.300781 91.699219 C 173.433594 91.699219 178.035156 93 182.101562 95.601562 C 186.101562 98.132812 189.300781 101.632812 191.699219 106.101562 C 194.101562 110.5 195.300781 115.566406 195.300781 121.300781 C 195.300781 126.898438 194.101562 131.933594 191.699219 136.398438 C 189.300781 140.867188 186.101562 144.332031 182.101562 146.800781 C 178.101562 149.332031 173.535156 150.601562 168.398438 150.601562 Z M 164.300781 136 C 166.964844 136 169.367188 135.367188 171.5 134.101562 C 173.566406 132.832031 175.199219 131.101562 176.398438 128.898438 C 177.601562 126.699219 178.199219 124.167969 178.199219 121.300781 C 178.199219 118.367188 177.601562 115.765625 176.398438 113.5 C 175.199219 111.234375 173.566406 109.464844 171.5 108.199219 C 169.367188 107 166.964844 106.398438 164.300781 106.398438 C 161.5 106.398438 159.066406 107.035156 157 108.300781 C 154.867188 109.632812 153.199219 111.367188 152 113.5 C 150.800781 115.699219 150.199219 118.300781 150.199219 121.300781 C 150.199219 124.101562 150.800781 126.632812 152 128.898438 C 153.199219 131.167969 154.867188 132.933594 157 134.199219 C 159.066406 135.398438 161.5 136 164.300781 136 Z M 164.300781 136 "/>
    <path style=" stroke:none;fill-rule:nonzero;fill:rgb(0%,0%,0%);fill-opacity:1;" d="M 92.101562 150.601562 C 87.433594 150.601562 83.464844 149.632812 80.199219 147.699219 C 77 145.765625 74.566406 142.933594 72.898438 139.199219 C 71.167969 135.464844 70.300781 130.867188 70.300781 125.398438 L 70.300781 93.101562 L 87.101562 93.101562 L 87.101562 123.800781 C 87.101562 127.933594 87.933594 131.101562 89.601562 133.300781 C 91.332031 135.5 94.101562 136.601562 97.898438 136.601562 C 100.234375 136.601562 102.300781 136.066406 104.101562 135 C 105.898438 134 107.300781 132.464844 108.300781 130.398438 C 109.300781 128.398438 109.800781 125.964844 109.800781 123.101562 L 109.800781 93.101562 L 126.601562 93.101562 L 126.601562 149.300781 L 112 149.300781 L 110.601562 140.398438 C 109 143.398438 106.632812 145.867188 103.5 147.800781 C 100.367188 149.667969 96.566406 150.601562 92.101562 150.601562 Z M 92.101562 150.601562 "/>
  </g>
</svg>