<?xml version="1.0" encoding="utf-8"?>
<svg viewBox="0 0 463.66 379.452" xmlns="http://www.w3.org/2000/svg">
  <g transform="matrix(1, 0, 0, 1, -18.170020591035836, -80.29762825028322)">
    <g transform="matrix(1, 0, 0, 1, -11.62416, 79.156805)">
      <path d="M 227.371 128.975 L 265.47 128.975 C 265.724 128.66 266.006 128.361 266.315 128.08 L 317.09 81.87 C 320.374 78.881 325.459 79.12 328.448 82.404 L 335.372 90.013 C 338.361 93.297 338.122 98.382 334.838 101.371 L 284.062 147.581 C 283.373 148.208 282.604 148.694 281.792 149.038 L 281.792 214.032 L 281.793 214.032 L 281.793 340.546 L 253.915 340.546 L 253.915 228.619 L 246.491 228.619 L 246.491 340.546 L 218.613 340.546 L 218.613 170.949 L 190.961 198.6 C 187.821 201.74 182.731 201.74 179.591 198.6 L 172.316 191.326 C 169.176 188.186 169.176 183.095 172.316 179.955 L 220.863 131.409 C 222.319 129.952 224.195 129.172 226.102 129.066 C 226.516 129.006 226.94 128.975 227.371 128.975 Z M 290.727 86.966 C 290.727 109.459 272.493 127.693 250 127.693 C 227.507 127.693 209.273 109.459 209.273 86.966 C 209.273 64.473 227.507 46.239 250 46.239 C 272.493 46.239 290.727 64.473 290.727 86.966 Z" style="">
        <title>infographic guy</title>
      </path>
    </g>
    <path d="M 30.246 434.287 L 30.246 438.833 L 18.746 438.833 L 18.746 434.287 Z M 20.973 430.106 L 27.246 430.106 L 27.246 446.128 Q 27.246 446.492 27.371 446.736 Q 27.496 446.981 27.757 447.1 Q 28.018 447.219 28.428 447.219 Q 28.712 447.219 29.092 447.151 Q 29.473 447.083 29.655 447.037 L 30.564 451.447 Q 30.143 451.572 29.365 451.753 Q 28.587 451.935 27.518 451.992 Q 25.359 452.106 23.893 451.543 Q 22.428 450.981 21.689 449.765 Q 20.95 448.549 20.973 446.719 Z M 39.419 441.924 L 39.419 451.742 L 33.146 451.742 L 33.146 428.469 L 39.192 428.469 L 39.192 437.606 L 39.373 437.606 Q 39.964 435.935 41.339 434.998 Q 42.714 434.06 44.646 434.06 Q 46.498 434.06 47.868 434.901 Q 49.237 435.742 49.993 437.219 Q 50.748 438.697 50.737 440.606 L 50.737 451.742 L 44.464 451.742 L 44.464 441.924 Q 44.476 440.628 43.822 439.89 Q 43.169 439.151 41.964 439.151 Q 41.203 439.151 40.629 439.486 Q 40.055 439.822 39.743 440.441 Q 39.43 441.06 39.419 441.924 Z M 53.813 451.742 L 53.813 434.287 L 60.086 434.287 L 60.086 451.742 Z M 56.961 432.469 Q 55.677 432.469 54.768 431.628 Q 53.859 430.787 53.859 429.606 Q 53.859 428.424 54.768 427.583 Q 55.677 426.742 56.95 426.742 Q 58.234 426.742 59.137 427.583 Q 60.041 428.424 60.041 429.606 Q 60.041 430.787 59.137 431.628 Q 58.234 432.469 56.961 432.469 Z M 79.208 439.969 L 73.435 439.969 Q 73.39 439.435 73.06 439.049 Q 72.73 438.662 72.213 438.452 Q 71.696 438.242 71.071 438.242 Q 70.265 438.242 69.685 438.537 Q 69.105 438.833 69.117 439.378 Q 69.105 439.765 69.452 440.094 Q 69.799 440.424 70.799 440.606 L 74.344 441.242 Q 77.026 441.731 78.338 442.884 Q 79.651 444.037 79.662 445.969 Q 79.651 447.833 78.554 449.202 Q 77.458 450.572 75.566 451.316 Q 73.674 452.06 71.253 452.06 Q 67.253 452.06 64.997 450.424 Q 62.742 448.787 62.48 446.106 L 68.708 446.106 Q 68.833 446.935 69.532 447.384 Q 70.23 447.833 71.299 447.833 Q 72.162 447.833 72.725 447.537 Q 73.287 447.242 73.299 446.697 Q 73.287 446.197 72.804 445.901 Q 72.321 445.606 71.299 445.424 L 68.208 444.878 Q 65.537 444.412 64.208 443.106 Q 62.878 441.799 62.89 439.742 Q 62.878 437.924 63.85 436.657 Q 64.821 435.39 66.634 434.725 Q 68.446 434.06 70.935 434.06 Q 74.719 434.06 76.907 435.628 Q 79.094 437.197 79.208 439.969 Z M 94.75 451.969 Q 92.887 451.969 91.324 450.992 Q 89.762 450.015 88.824 448.026 Q 87.887 446.037 87.887 443.015 Q 87.887 439.856 88.869 437.878 Q 89.852 435.901 91.415 434.981 Q 92.977 434.06 94.705 434.06 Q 96 434.06 96.977 434.509 Q 97.955 434.958 98.614 435.702 Q 99.273 436.447 99.614 437.333 L 99.705 437.333 L 99.705 428.469 L 105.977 428.469 L 105.977 451.742 L 99.75 451.742 L 99.75 448.878 L 99.614 448.878 Q 99.25 449.765 98.574 450.464 Q 97.898 451.162 96.938 451.566 Q 95.977 451.969 94.75 451.969 Z M 97.068 447.151 Q 97.932 447.151 98.551 446.645 Q 99.171 446.14 99.506 445.214 Q 99.841 444.287 99.841 443.015 Q 99.841 441.719 99.506 440.793 Q 99.171 439.867 98.551 439.373 Q 97.932 438.878 97.068 438.878 Q 96.205 438.878 95.597 439.373 Q 94.989 439.867 94.665 440.793 Q 94.341 441.719 94.341 443.015 Q 94.341 444.31 94.665 445.236 Q 94.989 446.162 95.597 446.657 Q 96.205 447.151 97.068 447.151 Z M 117.411 452.06 Q 114.615 452.06 112.598 450.986 Q 110.581 449.912 109.496 447.895 Q 108.411 445.878 108.411 443.06 Q 108.411 440.356 109.502 438.333 Q 110.592 436.31 112.581 435.185 Q 114.57 434.06 117.274 434.06 Q 119.252 434.06 120.854 434.674 Q 122.456 435.287 123.592 436.452 Q 124.729 437.617 125.342 439.276 Q 125.956 440.935 125.956 443.015 L 125.956 444.469 L 110.365 444.469 L 110.365 441.015 L 120.183 441.015 Q 120.172 440.265 119.803 439.691 Q 119.433 439.117 118.814 438.793 Q 118.195 438.469 117.411 438.469 Q 116.649 438.469 116.013 438.793 Q 115.377 439.117 114.996 439.685 Q 114.615 440.253 114.592 441.015 L 114.592 444.742 Q 114.592 445.583 114.945 446.242 Q 115.297 446.901 115.956 447.276 Q 116.615 447.651 117.547 447.651 Q 118.195 447.651 118.735 447.469 Q 119.274 447.287 119.661 446.941 Q 120.047 446.594 120.229 446.106 L 125.956 446.106 Q 125.661 447.924 124.558 449.259 Q 123.456 450.594 121.644 451.327 Q 119.831 452.06 117.411 452.06 Z M 138.908 434.287 L 138.908 438.833 L 127.408 438.833 L 127.408 434.287 Z M 129.636 430.106 L 135.908 430.106 L 135.908 446.128 Q 135.908 446.492 136.033 446.736 Q 136.158 446.981 136.42 447.1 Q 136.681 447.219 137.09 447.219 Q 137.374 447.219 137.755 447.151 Q 138.136 447.083 138.318 447.037 L 139.227 451.447 Q 138.806 451.572 138.028 451.753 Q 137.249 451.935 136.181 451.992 Q 134.022 452.106 132.556 451.543 Q 131.09 450.981 130.352 449.765 Q 129.613 448.549 129.636 446.719 Z M 149.617 452.06 Q 146.822 452.06 144.805 450.986 Q 142.788 449.912 141.703 447.895 Q 140.617 445.878 140.617 443.06 Q 140.617 440.356 141.708 438.333 Q 142.799 436.31 144.788 435.185 Q 146.776 434.06 149.481 434.06 Q 151.458 434.06 153.06 434.674 Q 154.663 435.287 155.799 436.452 Q 156.935 437.617 157.549 439.276 Q 158.163 440.935 158.163 443.015 L 158.163 444.469 L 142.572 444.469 L 142.572 441.015 L 152.39 441.015 Q 152.379 440.265 152.009 439.691 Q 151.64 439.117 151.021 438.793 Q 150.401 438.469 149.617 438.469 Q 148.856 438.469 148.22 438.793 Q 147.583 439.117 147.203 439.685 Q 146.822 440.253 146.799 441.015 L 146.799 444.742 Q 146.799 445.583 147.151 446.242 Q 147.504 446.901 148.163 447.276 Q 148.822 447.651 149.754 447.651 Q 150.401 447.651 150.941 447.469 Q 151.481 447.287 151.867 446.941 Q 152.254 446.594 152.435 446.106 L 158.163 446.106 Q 157.867 447.924 156.765 449.259 Q 155.663 450.594 153.85 451.327 Q 152.038 452.06 149.617 452.06 Z M 169.115 452.06 Q 166.274 452.06 164.252 450.93 Q 162.229 449.799 161.149 447.77 Q 160.07 445.742 160.07 443.06 Q 160.07 440.378 161.149 438.35 Q 162.229 436.322 164.252 435.191 Q 166.274 434.06 169.115 434.06 Q 171.683 434.06 173.564 434.986 Q 175.445 435.912 176.479 437.6 Q 177.513 439.287 177.524 441.56 L 171.706 441.56 Q 171.581 440.185 170.916 439.464 Q 170.252 438.742 169.206 438.742 Q 168.388 438.742 167.774 439.214 Q 167.161 439.685 166.82 440.634 Q 166.479 441.583 166.479 443.015 Q 166.479 444.447 166.82 445.395 Q 167.161 446.344 167.774 446.816 Q 168.388 447.287 169.206 447.287 Q 169.899 447.287 170.433 446.964 Q 170.967 446.64 171.303 446.009 Q 171.638 445.378 171.706 444.469 L 177.524 444.469 Q 177.49 446.776 176.467 448.486 Q 175.445 450.197 173.575 451.128 Q 171.706 452.06 169.115 452.06 Z M 190.515 434.287 L 190.515 438.833 L 179.015 438.833 L 179.015 434.287 Z M 181.243 430.106 L 187.515 430.106 L 187.515 446.128 Q 187.515 446.492 187.64 446.736 Q 187.765 446.981 188.027 447.1 Q 188.288 447.219 188.697 447.219 Q 188.981 447.219 189.362 447.151 Q 189.743 447.083 189.925 447.037 L 190.834 451.447 Q 190.413 451.572 189.635 451.753 Q 188.856 451.935 187.788 451.992 Q 185.629 452.106 184.163 451.543 Q 182.697 450.981 181.959 449.765 Q 181.22 448.549 181.243 446.719 Z M 193.052 451.742 L 193.052 434.287 L 199.324 434.287 L 199.324 451.742 Z M 196.199 432.469 Q 194.915 432.469 194.006 431.628 Q 193.097 430.787 193.097 429.606 Q 193.097 428.424 194.006 427.583 Q 194.915 426.742 196.188 426.742 Q 197.472 426.742 198.375 427.583 Q 199.279 428.424 199.279 429.606 Q 199.279 430.787 198.375 431.628 Q 197.472 432.469 196.199 432.469 Z M 220.082 434.287 L 214.219 451.742 L 206.946 451.742 L 201.082 434.287 L 207.673 434.287 L 210.491 445.833 L 210.673 445.833 L 213.491 434.287 Z M 229.665 452.06 Q 226.87 452.06 224.853 450.986 Q 222.836 449.912 221.751 447.895 Q 220.665 445.878 220.665 443.06 Q 220.665 440.356 221.756 438.333 Q 222.847 436.31 224.836 435.185 Q 226.824 434.06 229.529 434.06 Q 231.506 434.06 233.109 434.674 Q 234.711 435.287 235.847 436.452 Q 236.984 437.617 237.597 439.276 Q 238.211 440.935 238.211 443.015 L 238.211 444.469 L 222.62 444.469 L 222.62 441.015 L 232.438 441.015 Q 232.427 440.265 232.057 439.691 Q 231.688 439.117 231.069 438.793 Q 230.449 438.469 229.665 438.469 Q 228.904 438.469 228.268 438.793 Q 227.631 439.117 227.251 439.685 Q 226.87 440.253 226.847 441.015 L 226.847 444.742 Q 226.847 445.583 227.199 446.242 Q 227.552 446.901 228.211 447.276 Q 228.87 447.651 229.802 447.651 Q 230.449 447.651 230.989 447.469 Q 231.529 447.287 231.915 446.941 Q 232.302 446.594 232.484 446.106 L 238.211 446.106 Q 237.915 447.924 236.813 449.259 Q 235.711 450.594 233.898 451.327 Q 232.086 452.06 229.665 452.06 Z M 257.56 434.287 L 257.56 438.833 L 245.878 438.833 L 245.878 434.287 Z M 248.105 451.742 L 248.105 433.787 Q 248.105 431.628 248.878 430.208 Q 249.651 428.787 251.06 428.083 Q 252.469 427.378 254.378 427.378 Q 255.571 427.378 256.702 427.56 Q 257.833 427.742 258.378 427.878 L 257.469 432.378 Q 257.128 432.276 256.673 432.214 Q 256.219 432.151 255.878 432.151 Q 254.992 432.151 254.685 432.526 Q 254.378 432.901 254.378 433.515 L 254.378 451.742 Z M 267.817 452.06 Q 264.977 452.06 262.954 450.93 Q 260.931 449.799 259.852 447.77 Q 258.772 445.742 258.772 443.06 Q 258.772 440.378 259.852 438.35 Q 260.931 436.322 262.954 435.191 Q 264.977 434.06 267.817 434.06 Q 270.658 434.06 272.681 435.191 Q 274.704 436.322 275.783 438.35 Q 276.863 440.378 276.863 443.06 Q 276.863 445.742 275.783 447.77 Q 274.704 449.799 272.681 450.93 Q 270.658 452.06 267.817 452.06 Z M 267.863 447.424 Q 268.658 447.424 269.238 446.89 Q 269.817 446.356 270.136 445.367 Q 270.454 444.378 270.454 443.015 Q 270.454 441.64 270.136 440.657 Q 269.817 439.674 269.238 439.14 Q 268.658 438.606 267.863 438.606 Q 267.022 438.606 266.42 439.14 Q 265.817 439.674 265.499 440.657 Q 265.181 441.64 265.181 443.015 Q 265.181 444.378 265.499 445.367 Q 265.817 446.356 266.42 446.89 Q 267.022 447.424 267.863 447.424 Z M 290.717 444.106 L 290.717 434.287 L 296.99 434.287 L 296.99 451.742 L 291.035 451.742 L 291.035 448.424 L 290.853 448.424 Q 290.285 450.094 288.865 451.032 Q 287.444 451.969 285.49 451.969 Q 283.66 451.969 282.291 451.128 Q 280.921 450.287 280.166 448.81 Q 279.41 447.333 279.399 445.424 L 279.399 434.287 L 285.671 434.287 L 285.671 444.106 Q 285.683 445.401 286.336 446.14 Q 286.99 446.878 288.171 446.878 Q 288.955 446.878 289.529 446.543 Q 290.103 446.208 290.416 445.589 Q 290.728 444.969 290.717 444.106 Z M 306.443 441.924 L 306.443 451.742 L 300.17 451.742 L 300.17 434.287 L 306.124 434.287 L 306.124 437.606 L 306.306 437.606 Q 306.874 435.947 308.312 435.003 Q 309.749 434.06 311.67 434.06 Q 313.522 434.06 314.891 434.907 Q 316.261 435.753 317.016 437.231 Q 317.772 438.708 317.761 440.606 L 317.761 451.742 L 311.488 451.742 L 311.488 441.924 Q 311.499 440.628 310.835 439.89 Q 310.17 439.151 308.988 439.151 Q 308.215 439.151 307.641 439.486 Q 307.068 439.822 306.761 440.441 Q 306.454 441.06 306.443 441.924 Z M 327.155 451.969 Q 325.292 451.969 323.729 450.992 Q 322.167 450.015 321.229 448.026 Q 320.292 446.037 320.292 443.015 Q 320.292 439.856 321.274 437.878 Q 322.257 435.901 323.82 434.981 Q 325.382 434.06 327.11 434.06 Q 328.405 434.06 329.382 434.509 Q 330.36 434.958 331.019 435.702 Q 331.678 436.447 332.019 437.333 L 332.11 437.333 L 332.11 428.469 L 338.382 428.469 L 338.382 451.742 L 332.155 451.742 L 332.155 448.878 L 332.019 448.878 Q 331.655 449.765 330.979 450.464 Q 330.303 451.162 329.343 451.566 Q 328.382 451.969 327.155 451.969 Z M 329.473 447.151 Q 330.337 447.151 330.956 446.645 Q 331.576 446.14 331.911 445.214 Q 332.246 444.287 332.246 443.015 Q 332.246 441.719 331.911 440.793 Q 331.576 439.867 330.956 439.373 Q 330.337 438.878 329.473 438.878 Q 328.61 438.878 328.002 439.373 Q 327.394 439.867 327.07 440.793 Q 326.746 441.719 326.746 443.015 Q 326.746 444.31 327.07 445.236 Q 327.394 446.162 328.002 446.657 Q 328.61 447.151 329.473 447.151 Z M 354.093 441.924 L 354.093 451.742 L 347.82 451.742 L 347.82 434.287 L 353.775 434.287 L 353.775 437.606 L 353.957 437.606 Q 354.525 435.947 355.963 435.003 Q 357.4 434.06 359.32 434.06 Q 361.173 434.06 362.542 434.907 Q 363.911 435.753 364.667 437.231 Q 365.423 438.708 365.411 440.606 L 365.411 451.742 L 359.139 451.742 L 359.139 441.924 Q 359.15 440.628 358.485 439.89 Q 357.82 439.151 356.639 439.151 Q 355.866 439.151 355.292 439.486 Q 354.718 439.822 354.411 440.441 Q 354.105 441.06 354.093 441.924 Z M 376.897 452.06 Q 374.056 452.06 372.033 450.93 Q 370.01 449.799 368.931 447.77 Q 367.851 445.742 367.851 443.06 Q 367.851 440.378 368.931 438.35 Q 370.01 436.322 372.033 435.191 Q 374.056 434.06 376.897 434.06 Q 379.738 434.06 381.76 435.191 Q 383.783 436.322 384.863 438.35 Q 385.942 440.378 385.942 443.06 Q 385.942 445.742 384.863 447.77 Q 383.783 449.799 381.76 450.93 Q 379.738 452.06 376.897 452.06 Z M 376.942 447.424 Q 377.738 447.424 378.317 446.89 Q 378.897 446.356 379.215 445.367 Q 379.533 444.378 379.533 443.015 Q 379.533 441.64 379.215 440.657 Q 378.897 439.674 378.317 439.14 Q 377.738 438.606 376.942 438.606 Q 376.101 438.606 375.499 439.14 Q 374.897 439.674 374.578 440.657 Q 374.26 441.64 374.26 443.015 Q 374.26 444.378 374.578 445.367 Q 374.897 446.356 375.499 446.89 Q 376.101 447.424 376.942 447.424 Z M 398.887 434.287 L 398.887 438.833 L 387.387 438.833 L 387.387 434.287 Z M 389.614 430.106 L 395.887 430.106 L 395.887 446.128 Q 395.887 446.492 396.012 446.736 Q 396.137 446.981 396.398 447.1 Q 396.66 447.219 397.069 447.219 Q 397.353 447.219 397.734 447.151 Q 398.114 447.083 398.296 447.037 L 399.205 451.447 Q 398.785 451.572 398.006 451.753 Q 397.228 451.935 396.16 451.992 Q 394.001 452.106 392.535 451.543 Q 391.069 450.981 390.33 449.765 Q 389.592 448.549 389.614 446.719 Z M 408.06 441.924 L 408.06 451.742 L 401.787 451.742 L 401.787 428.469 L 407.833 428.469 L 407.833 437.606 L 408.015 437.606 Q 408.606 435.935 409.981 434.998 Q 411.356 434.06 413.287 434.06 Q 415.14 434.06 416.509 434.901 Q 417.878 435.742 418.634 437.219 Q 419.39 438.697 419.378 440.606 L 419.378 451.742 L 413.106 451.742 L 413.106 441.924 Q 413.117 440.628 412.464 439.89 Q 411.81 439.151 410.606 439.151 Q 409.844 439.151 409.27 439.486 Q 408.697 439.822 408.384 440.441 Q 408.072 441.06 408.06 441.924 Z M 422.455 451.742 L 422.455 434.287 L 428.727 434.287 L 428.727 451.742 Z M 425.602 432.469 Q 424.318 432.469 423.409 431.628 Q 422.5 430.787 422.5 429.606 Q 422.5 428.424 423.409 427.583 Q 424.318 426.742 425.591 426.742 Q 426.875 426.742 427.778 427.583 Q 428.682 428.424 428.682 429.606 Q 428.682 430.787 427.778 431.628 Q 426.875 432.469 425.602 432.469 Z M 438.184 441.924 L 438.184 451.742 L 431.912 451.742 L 431.912 434.287 L 437.866 434.287 L 437.866 437.606 L 438.048 437.606 Q 438.616 435.947 440.054 435.003 Q 441.491 434.06 443.412 434.06 Q 445.264 434.06 446.633 434.907 Q 448.003 435.753 448.758 437.231 Q 449.514 438.708 449.503 440.606 L 449.503 451.742 L 443.23 451.742 L 443.23 441.924 Q 443.241 440.628 442.577 439.89 Q 441.912 439.151 440.73 439.151 Q 439.957 439.151 439.383 439.486 Q 438.809 439.822 438.503 440.441 Q 438.196 441.06 438.184 441.924 Z M 460.988 458.651 Q 458.363 458.651 456.494 457.907 Q 454.624 457.162 453.596 455.861 Q 452.567 454.56 452.442 452.878 L 458.488 452.878 Q 458.579 453.435 458.942 453.776 Q 459.306 454.117 459.88 454.27 Q 460.454 454.424 461.17 454.424 Q 462.386 454.424 463.187 453.833 Q 463.988 453.242 463.988 451.697 L 463.988 448.742 L 463.806 448.742 Q 463.465 449.628 462.761 450.248 Q 462.056 450.867 461.067 451.191 Q 460.079 451.515 458.897 451.515 Q 457.033 451.515 455.471 450.651 Q 453.908 449.787 452.971 447.912 Q 452.033 446.037 452.033 443.015 Q 452.033 439.856 453.016 437.878 Q 453.999 435.901 455.562 434.981 Q 457.124 434.06 458.852 434.06 Q 460.147 434.06 461.124 434.509 Q 462.102 434.958 462.761 435.702 Q 463.42 436.447 463.761 437.333 L 463.897 437.333 L 463.897 434.287 L 470.17 434.287 L 470.17 451.697 Q 470.17 453.912 469.028 455.464 Q 467.886 457.015 465.817 457.833 Q 463.749 458.651 460.988 458.651 Z M 461.215 447.06 Q 462.079 447.06 462.698 446.577 Q 463.317 446.094 463.653 445.191 Q 463.988 444.287 463.988 443.015 Q 463.988 441.719 463.653 440.793 Q 463.317 439.867 462.698 439.373 Q 462.079 438.878 461.215 438.878 Q 460.352 438.878 459.744 439.373 Q 459.136 439.867 458.812 440.793 Q 458.488 441.719 458.488 443.015 Q 458.488 444.31 458.812 445.214 Q 459.136 446.117 459.744 446.589 Q 460.352 447.06 461.215 447.06 Z M 476.742 452.106 Q 475.424 452.106 474.486 451.18 Q 473.549 450.253 473.56 448.924 Q 473.549 447.628 474.486 446.708 Q 475.424 445.787 476.742 445.787 Q 477.992 445.787 478.952 446.708 Q 479.912 447.628 479.924 448.924 Q 479.912 449.81 479.463 450.532 Q 479.015 451.253 478.299 451.68 Q 477.583 452.106 476.742 452.106 Z"/>
    <path/>
    <g>
      <title>404magnifying</title>
      <rect x="246.419" y="66.459" width="7.162" height="38.142" style="" transform="matrix(0.975517, -0.219926, 0.219926, 0.975517, 51.987925, 125.088986)"/>
      <path d="M 332.158 112.308 C 332.158 127.097 320.17 139.085 305.381 139.085 C 290.592 139.085 278.604 127.097 278.604 112.308 C 278.604 97.519 290.592 85.531 305.381 85.531 C 320.17 85.531 332.158 97.519 332.158 112.308 Z M 305.381 89.68 C 292.884 89.68 282.753 99.811 282.753 112.308 C 282.753 124.805 292.884 134.936 305.381 134.936 C 317.878 134.936 328.009 124.805 328.009 112.308 C 328.009 99.811 317.878 89.68 305.381 89.68 Z" style="transform-box: fill-box; transform-origin: 50% 50%;" transform="matrix(0.975517, -0.219926, 0.219926, 0.975517, 0, 0.000008)"/>
      <path d="M 284.662 118.83 L 284.662 116.494 L 291.544 105.621 L 293.492 105.621 L 293.492 108.947 L 292.304 108.947 L 287.672 116.288 L 287.672 116.414 L 297.277 116.414 L 297.277 118.83 Z M 292.399 121.839 L 292.399 118.117 L 292.431 117.072 L 292.431 105.621 L 295.203 105.621 L 295.203 121.839 Z M 305.776 122.148 Q 303.82 122.148 302.422 121.154 Q 301.025 120.16 300.276 118.279 Q 299.528 116.399 299.528 113.746 Q 299.536 111.093 300.284 109.228 Q 301.032 107.363 302.43 106.381 Q 303.828 105.399 305.776 105.399 Q 307.724 105.399 309.126 106.381 Q 310.527 107.363 311.276 109.232 Q 312.024 111.101 312.024 113.746 Q 312.024 116.407 311.276 118.287 Q 310.527 120.168 309.13 121.158 Q 307.732 122.148 305.776 122.148 Z M 305.776 119.669 Q 307.296 119.669 308.179 118.169 Q 309.062 116.668 309.062 113.746 Q 309.062 111.813 308.659 110.499 Q 308.255 109.184 307.518 108.515 Q 306.782 107.846 305.776 107.846 Q 304.263 107.846 303.384 109.347 Q 302.505 110.847 302.498 113.746 Q 302.49 115.686 302.89 117.008 Q 303.289 118.331 304.026 119 Q 304.762 119.669 305.776 119.669 Z M 314.352 118.83 L 314.352 116.494 L 321.233 105.621 L 323.182 105.621 L 323.182 108.947 L 321.994 108.947 L 317.361 116.288 L 317.361 116.414 L 326.967 116.414 L 326.967 118.83 Z M 322.089 121.839 L 322.089 118.117 L 322.12 117.072 L 322.12 105.621 L 324.892 105.621 L 324.892 121.839 Z"/>
    </g>
  </g>
</svg>