<?xml version="1.0" encoding="utf-8"?>
<svg viewBox="0 0 945 12" xmlns="http://www.w3.org/2000/svg">
  <path id="fg-menu" class="s0" d="M -1.229 -124.313 C -1.229 -131.747 4.807 -137.757 12.215 -137.757 L 931.556 -137.757 C 938.99 -137.757 945 -131.747 945 -124.313 L 945 -1.444 C 945 5.99 938.99 12 931.556 12 L 12.215 12 C 4.807 12 -1.229 5.99 -1.229 -1.444 L -1.229 -124.313 Z M 131.999 -107.046 L 70.341 -94.736 L 112.993 -48.577 L 55.895 -74.859 L 63.25 -12.437 L 32.513 -67.241 L 1.75 -12.437 L 9.104 -74.859 L -47.994 -48.577 L -5.342 -94.736 L -67 -107.046 L -5.342 -119.33 L -47.994 -165.515 L 9.104 -139.233 L 1.75 -201.656 L 32.513 -146.851 L 63.25 -201.656 L 55.895 -139.233 L 112.993 -165.515 L 70.341 -119.33 L 131.999 -107.046 Z" style="fill: rgb(255, 199, 44);"/>
</svg>