
<svg version="1.2" xmlns="http://www.w3.org/2000/svg" viewBox="0 0 3840 588" width="3840" height="588">
	<title>rubberocket_march2024_header</title>
	<style>
		.s0 { fill: #ffc72c } 
		.s1 { fill: #000000 } 
		.s2 { fill: none;stroke: #000000;stroke-miterlimit:100;stroke-width: 8.3 } 
	</style>
	<path id="fg-menu" class="s0" d="m250.5 293.6c0-28.2 22.9-51 51-51h3487.5c28.2 0 51 22.8 51 51v466.1c0 28.2-22.8 51-51 51h-3487.5c-28.1 0-51-22.8-51-51zm505.4 65.5l-233.9 46.7 161.8 175.1-216.6-99.7 27.9 236.8-116.6-207.9-116.7 207.9 27.9-236.8-216.6 99.7 161.8-175.1-233.9-46.7 233.9-46.6-161.8-175.2 216.6 99.7-27.9-236.8 116.7 207.9 116.6-207.9-27.9 236.8 216.6-99.7-161.8 175.2z"/>
	<g id="header_art">
		<g id="guy01">
			<path id="Layer 1" class="s1" d="m2009.5 317c-50.9 0-92.1-41.1-92.1-92 0-50.9 41.2-92.1 92.1-92.1 50.9 0 92 41.2 92 92.1 0 50.9-41.1 92-92 92z"/>
			<path id="Shape 2" class="s1" d="m1937.9 368.6c0-14.4 11.6-26 26-26h91.2c14.3 0 26 11.6 26 26v193.4c0 14.4-11.7 26-26 26h-91.2c-14.4 0-26-11.6-26-26zm0 106.9h143.2v112.5h-143.2z"/>
		</g>
		<g id="guy02">
			<path id="Layer 1" class="s1" d="m2214 317c-50.9 0-92-41.1-92-92 0-50.9 41.1-92.1 92-92.1 50.9 0 92 41.2 92 92.1 0 50.9-41.1 92-92 92z"/>
			<path id="Shape 2" class="s1" d="m2142.4 368.6c0-14.4 11.7-26 26-26h91.2c14.4 0 26 11.6 26 26v193.4c0 14.4-11.6 26-26 26h-91.2c-14.3 0-26-11.6-26-26zm0 106.9h143.2v112.5h-143.2z"/>
			<path id="Shape 3" class="s1" d="m2237.3 346.3l107.4-47.7 35.3 79.4-107.4 47.7z"/>
			<path id="Shape 4" fill-rule="evenodd" class="s1" d="m2488.8 100.1c0 0 195.9-54.8 206.1-38.4 10.2 16.5-161.1 130.3-161.1 130.3l-45.6 36.3 20.1-69.8-75.9-34.2zm141.3-7.8c-5-11.7-18.5-17.1-30.2-12.1-11.7 5-17.1 18.6-12.1 30.2 5.1 11.7 18.6 17.1 30.3 12.1 11.6-5 17-18.5 12-30.2z"/>
			<path id="Layer 2" class="s1" d="m2362.3 317l10.2-97.1 25.6 86.9zm10.2-86.9c-14.1 0-25.6-11.5-25.6-25.6 0-14.1 11.5-25.6 25.6-25.6 14.1 0 25.6 11.5 25.6 25.6 0 14.1-11.5 25.6-25.6 25.6z"/>
			<path id="Shape 5" class="s1" d="m2336.7 281.2h184.1v112.5h-184.1z"/>
		</g>
		<g id="guy03">
			<path id="Layer 1" class="s1" d="m2674.2 317c-50.9 0-92-41.1-92-92 0-50.9 41.1-92.1 92-92.1 50.9 0 92 41.2 92 92.1 0 50.9-41.1 92-92 92z"/>
			<path id="Shape 2" class="s1" d="m2602.6 368.6c0-14.4 11.7-26 26-26h91.2c14.3 0 26 11.6 26 26v193.4c0 14.4-11.7 26-26 26h-91.2c-14.3 0-26-11.6-26-26zm0 106.9h143.2v112.5h-143.2z"/>
		</g>
		<g id="guy04">
			<path id="Layer 1" class="s1" d="m2884.2 317c-50.9 0-92-41.1-92-92 0-50.9 41.1-92.1 92-92.1 50.9 0 92 41.2 92 92.1 0 50.9-41.1 92-92 92z"/>
			<path id="Shape 2" class="s1" d="m2812.6 368.6c0-14.4 11.7-26 26-26h91.2c14.3 0 26 11.6 26 26v193.4c0 14.4-11.7 26-26 26h-91.2c-14.3 0-26-11.6-26-26zm0 106.9h143.2v112.5h-143.2z"/>
		</g>
		<g id="guy05">
			<path id="Layer 1" class="s1" d="m2884.2 317c-50.9 0-92-41.1-92-92 0-50.9 41.1-92.1 92-92.1 50.9 0 92 41.2 92 92.1 0 50.9-41.1 92-92 92z"/>
			<path id="Shape 2" class="s1" d="m2812.6 368.6c0-14.4 11.7-26 26-26h91.2c14.3 0 26 11.6 26 26v193.4c0 14.4-11.7 26-26 26h-91.2c-14.3 0-26-11.6-26-26zm0 106.9h143.2v112.5h-143.2z"/>
		</g>
		<g id="guy06">
			<path id="Layer 1" class="s1" d="m3088.7 317c-50.9 0-92-41.1-92-92 0-50.9 41.1-92.1 92-92.1 50.9 0 92.1 41.2 92.1 92.1 0 50.9-41.2 92-92.1 92z"/>
			<path id="Shape 2" class="s1" d="m3017.1 368.6c0-14.4 11.7-26 26-26h91.2c14.4 0 26 11.6 26 26v193.4c0 14.4-11.6 26-26 26h-91.2c-14.3 0-26-11.6-26-26zm0 106.9h143.2v112.5h-143.2z"/>
			<path id="Layer 4" class="s2" d="m3087 119c-49.2 0-89-2.7-89-6 0-3.3 39.8-6 89-6 49.2 0 89 2.7 89 6 0 3.3-39.8 6-89 6z"/>
		</g>
		<g id="guy07">
			<path id="Layer 1" class="s1" d="m3345.5 317c-50.9 0-92-41.1-92-92 0-50.9 41.1-92.1 92-92.1 50.9 0 92 41.2 92 92.1 0 50.9-41.1 92-92 92z"/>
			<path id="Shape 2" class="s1" d="m3273.9 368.6c0-14.4 11.7-26 26-26h91.2c14.4 0 26 11.6 26 26v193.4c0 14.4-11.6 26-26 26h-91.2c-14.3 0-26-11.6-26-26zm0 106.9h143.2v112.5h-143.2zm-56.2-363"/>
			<path id="Layer 3" class="s1" d=""/>
			<path id="Color Fill 1" class="s1" d="m3391.5 153.4l35.8-25.6v-35.8l-20.4-30.6 81.8 35.7v41l-56.3 61.3z"/>
			<path id="Color Fill 1 copy" class="s1" d="m3299.5 153.4l-35.8-25.6v-35.8l20.5-30.6-81.9 35.7v41l56.3 61.3z"/>
		</g>
		<g id="wordmark">
			<path id="Layer" class="s1" d="m296.8 468.8v-131h34.5l3.7 23.9q5.2-8.3 12.2-14.3 7-6 16.2-9.4 9.2-3.3 19.9-3.3v41.3h-13q-7.8 0-14.2 1.7-6.3 1.7-10.9 5.6-4.5 3.9-7 10.5-2.5 6.6-2.5 16.5v58.5z"/>
			<path id="Layer" class="s1" d="m1703.3 468.8q-14 0-24.9-4.6-11-4.5-16.9-14.9-6-10.4-6-28.3v-50.7h-22.4v-32.5h22.4l4.1-36.9h34.9v36.9h33.5v32.5h-33.5v51.2q0 7.8 3.5 11 3.5 3.3 12.1 3.3h17.9v33z"/>
			<path id="Layer" class="s1" d="m1564.8 471.9q-20.3 0-35.6-8.4-15.3-8.5-24-23.7-8.7-15.2-8.7-35 0-20.2 8.5-36.1 8.6-15.8 23.9-24.9 15.4-9.1 35.7-9.1 19.7 0 34.5 8.5 14.8 8.6 23.3 23.3 8.4 14.7 8.4 33.9 0 2.6-0.1 5.9-0.1 3.2-0.6 6.6h-105.8v-22.6h66.8q-0.6-10.9-8-17.6-7.4-6.6-18.3-6.6-8.3 0-15.1 3.9-6.7 3.9-10.7 11.7-4.1 7.8-4.1 19.8v7.8q0 9.1 3.5 16.1 3.5 7 10.2 10.9 6.6 3.9 15.7 3.9 8.6 0 14.2-3.5 5.6-3.5 8.7-9h39.7q-3.6 12.5-12.4 22.5-8.9 10-21.6 15.9-12.7 5.8-28.1 5.8z"/>
			<path id="Layer" class="s1" d="m1459.3 468.8l-54.1-71.8 48.1-59.2h46l-64.7 75.9v-31.2l73.1 86.3zm-87.4-187.2h39v187.2h-39z"/>
			<path id="Layer" class="s1" d="m1292.5 471.9q-20.3 0-35.8-8.8-15.4-8.9-24.1-24.2-8.7-15.3-8.7-35.1 0-20.3 8.7-35.7 8.7-15.5 24.1-24.5 15.5-8.9 35.8-8.9 25.7 0 43.3 13.5 17.5 13.5 22.2 37.7h-41.3q-2.4-8.3-8.9-13-6.5-4.7-15.6-4.7-8.5 0-14.9 4.3-6.4 4.3-10 12.2-3.7 7.9-3.7 18.6 0 8 2.1 14.5 2.1 6.5 5.9 11.2 3.7 4.7 8.9 7.2 5.2 2.4 11.7 2.4 6.3 0 11.1-2 4.8-2.1 8.3-6 3.5-3.9 5.1-9.6h41.3q-4.7 23.4-22.4 37.1-17.6 13.8-43.1 13.8z"/>
			<path id="Layer" fill-rule="evenodd" class="s1" d="m1147 471.9q-19 0-34.1-8.8-15-8.9-23.9-24.3-8.8-15.5-8.8-35.3 0-20.2 8.8-35.7 8.9-15.5 24.1-24.3 15.2-8.8 33.9-8.8 19.2 0 34.3 8.8 15.1 8.8 23.9 24.3 8.8 15.5 8.8 35.5 0 20-8.8 35.5-8.8 15.4-23.9 24.3-15.1 8.8-34.3 8.8zm0-33.8q7.8 0 13.9-3.9 6.1-3.9 9.7-11.7 3.7-7.8 3.7-19.2 0-11.4-3.7-19.2-3.6-7.8-9.6-11.7-6-3.9-13.8-3.9-7.8 0-13.9 3.9-6.1 3.9-9.7 11.7-3.7 7.8-3.7 19.2 0 11.4 3.7 19.2 3.6 7.8 9.7 11.7 6.1 3.9 13.7 3.9z"/>
			<path id="Layer" class="s1" d="m992.3 468.8v-131h34.6l3.7 23.9q5.2-8.3 12.2-14.3 7-6 16.2-9.4 9.2-3.3 19.9-3.3v41.3h-13q-7.8 0-14.2 1.7-6.3 1.7-10.9 5.6-4.5 3.9-7 10.5-2.5 6.6-2.5 16.5v58.5z"/>
			<path id="Layer" class="s1" d="m913.9 471.9q-20.3 0-35.6-8.4-15.4-8.5-24.1-23.7-8.7-15.2-8.7-35 0-20.2 8.6-36.1 8.6-15.8 23.9-24.9 15.4-9.1 35.6-9.1 19.8 0 34.6 8.5 14.8 8.6 23.3 23.3 8.4 14.7 8.4 33.9 0 2.6-0.1 5.9-0.2 3.2-0.7 6.6h-105.8v-22.6h66.8q-0.5-10.9-7.9-17.6-7.4-6.6-18.3-6.6-8.3 0-15.1 3.9-6.7 3.9-10.8 11.7-4 7.8-4 19.8v7.8q0 9.1 3.5 16.1 3.5 7 10.1 10.9 6.7 3.9 15.8 3.9 8.5 0 14.1-3.5 5.6-3.5 8.7-9h39.8q-3.6 12.5-12.5 22.5-8.8 10-21.5 15.9-12.8 5.8-28.1 5.8z"/>
			<path id="Layer" fill-rule="evenodd" class="s1" d="m773.1 471.9q-9.7 0-17.3-2.3-7.7-2.4-13.5-6.7-5.9-4.2-10.1-9.7l-4.4 15.6h-34.5v-187.2h38.9v73.3q6.3-8.8 16.2-14.5 9.8-5.7 24.4-5.7 17.9 0 32.1 8.9 14.2 9 22.5 24.5 8.3 15.4 8.3 35.4 0 19.5-8.3 35.1-8.3 15.6-22.4 24.5-14 8.8-31.9 8.8zm-9.7-34q9.4 0 16.8-4.5 7.4-4.4 11.6-12 4.1-7.7 4.1-17.9 0-10.1-4.1-18-4.2-7.9-11.6-12.4-7.4-4.4-16.8-4.4-9.6 0-17 4.6-7.4 4.5-11.6 12.2-4.1 7.6-4.1 18 0 9.9 4.1 17.9 4.2 7.9 11.6 12.2 7.4 4.3 17 4.3z"/>
			<path id="Layer" fill-rule="evenodd" class="s1" d="m616.9 471.9q-9.6 0-17.3-2.3-7.7-2.4-13.5-6.7-5.9-4.2-10-9.7l-4.4 15.6h-34.6v-187.2h39v73.3q6.2-8.8 16.1-14.5 9.9-5.7 24.4-5.7 18 0 32.1 8.9 14.2 9 22.5 24.5 8.3 15.4 8.3 35.4 0 19.5-8.3 35.1-8.3 15.6-22.3 24.5-14.1 8.8-32 8.8zm-9.6-34q9.3 0 16.7-4.5 7.4-4.4 11.6-12 4.2-7.7 4.2-17.9 0-10.1-4.2-18-4.2-7.9-11.6-12.4-7.4-4.4-16.7-4.4-9.7 0-17.1 4.6-7.4 4.5-11.5 12.2-4.2 7.6-4.2 18 0 9.9 4.2 17.9 4.1 7.9 11.5 12.2 7.4 4.3 17.1 4.3z"/>
			<path id="Shape 1" class="s1" d="m864.5 383.9h18.8v32.3h-18.8z"/>
			<path id="Shape 2" class="s1" d="m861.8 390.3h37.7v21.5h-37.7z"/>
			<path id="Shape 3" class="s1" d="m1426.9 381.2h18.8v35h-18.8z"/>
			<path id="Shape 4" class="s1" d="m1513 386.6h21.5v29.6h-21.5z"/>
			<path id="Shape 5" class="s1" d="m1518.3 389.3h37.7v16.2h-37.7z"/>
			<path id="Shape 6" class="s1" d="m1513 394.7h69.9v18.8h-69.9z"/>
			<path id="Shape 7" class="s1" d="m872.6 393.7h51.1v18.8h-51.1z"/>
			<path id="Layer" class="s1" d="m439.1 471.9q-16.4 0-27.7-6.7-11.3-6.8-17.1-19.9-5.9-13.2-5.9-32.1v-75.4h39v71.5q0 14.5 6 22.2 6 7.7 19.2 7.7 8.1 0 14.5-3.7 6.3-3.6 9.8-10.6 3.5-7.1 3.5-17.2v-69.9h39v131h-34l-3.1-20.8q-5.7 10.7-16.7 17.3-10.9 6.6-26.5 6.6z"/>
		</g>
		<g id="symbol">
			<path id="Layer" fill-rule="evenodd" class="s1" d="m3664 546.7c-80.7 0-146-65.3-146-146 0-80.8 65.3-146 146-146 80.7 0 146 65.2 146 146 0 80.7-65.3 146-146 146zm132.2-146c0-73.1-59.1-132.2-132.2-132.2-73.1 0-132.2 59.1-132.2 132.2 0 73 59.1 132.1 132.2 132.1 73.1 0 132.2-59.1 132.2-132.1z"/>
			<path id="Layer" class="s1" d="m3677.6 401.3l-3.4-46.7q-0.9-14-7-28.6-6.4-16.3-41.1-15.1v-6.5h-28.5l0.4 21.6v170.9h28.1v-151.4q7.7-1.9 16.1 4.3 5.7 4.3 8.6 51.5l3 45.4q0.9 14 7 28.6 6.4 16.3 41.1 15.1v6.5h28.5l-0.4-21.6v-170.9h-28.1v151.4q-7.7 1.9-16.1-4.3-5.7-4.3-8.2-50.2z"/>
		</g>
	</g>
</svg>